<?xml version="1.0" encoding="UTF-8"?>
<svg id="Layer_1" data-name="Layer 1" xmlns="http://www.w3.org/2000/svg" viewBox="0 0 1585.72 1585.72">
  <defs>
    <style>
      .cls-1 {
        fill: #00cb7b;
      }

      .cls-2 {
        fill: #231f20;
      }
    </style>
  </defs>
  <g>
    <path class="cls-2" d="M1157.92,1161.02c-97.91,97.11-227.57,150.59-365.07,150.59-276.89,0-503.81-218.06-518.04-491.47h151.24L145.03,333.38l-24.08,38.38c-22.46,35.8-42.17,73.63-58.59,112.44C20.98,582.04,0,685.89,0,792.86s20.98,210.82,62.36,308.66c39.94,94.43,97.09,179.21,169.86,251.98,72.77,72.77,157.55,129.92,251.98,169.86,97.83,41.38,201.68,62.36,308.66,62.36s210.83-20.98,308.66-62.36c74.87-31.67,144.15-74.49,205.9-127.29l17.24-14.74-141.59-245.25-25.14,24.93Z"/>
    <path class="cls-2" d="M1523.35,484.2c-39.94-94.43-97.09-179.21-169.86-251.98-72.77-72.77-157.55-129.92-251.98-169.86C1003.68,20.98,899.83,0,792.86,0s-210.82,20.98-308.66,62.36c-74.86,31.66-144.14,74.49-205.9,127.29l-17.24,14.74,141.59,245.24,25.14-24.93c97.91-97.11,227.56-150.59,365.06-150.59,276.89,0,503.81,218.06,518.04,491.47h-151.24l281.03,486.76,24.08-38.38c22.45-35.78,42.16-73.61,58.58-112.44,41.38-97.84,62.37-201.68,62.37-308.66s-20.98-210.82-62.36-308.66Z"/>
  </g>
  <polygon id="check_1" data-name="check 1" class="cls-1" points="718.16 842.59 589.15 713.58 502.21 800.51 718.16 1016.48 805.1 929.53 1121.64 612.97 1034.7 526.03 718.16 842.59"/>
</svg>